<svg data-name="그룹 186079" xmlns="http://www.w3.org/2000/svg" width="160" height="48" viewBox="0 0 160 48">
    <defs>
        <clipPath id="r0z51rin2a">
            <path data-name="사각형 21596" style="fill:none" d="M0 0h25.76v28.791H0z"/>
        </clipPath>
    </defs>
    <rect data-name="사각형 21634" width="160" height="48" rx="8" style="fill:#222"/>
    <path data-name="패스 56610" d="M70.186 14.52a3.073 3.073 0 0 1-.791 2.258 3.5 3.5 0 0 1-5.995-2.484 3.472 3.472 0 0 1 3.5-3.5 3.012 3.012 0 0 1 1.356.339 2.461 2.461 0 0 1 1.017.79l-.565.565a2.109 2.109 0 0 0-1.808-.79 2.25 2.25 0 0 0-1.809.79 2.324 2.324 0 0 0-.791 1.919 2.324 2.324 0 0 0 .791 1.919 2.912 2.912 0 0 0 1.809.79 2.481 2.481 0 0 0 1.922-.79 1.869 1.869 0 0 0 .565-1.355h-2.479v-.79h3.278z" transform="translate(-13.01 -2.159)" style="stroke:#fff;stroke-miterlimit:10;stroke-width:.2px;fill:#fff"/>
    <path data-name="패스 56611" d="M77.392 11.7H74.34v2.145h2.826v.79H74.34v2.145h3.052v.79h-3.956v-6.776h3.956z" transform="translate(-15.061 -2.159)" style="stroke:#fff;stroke-miterlimit:10;stroke-width:.2px;fill:#fff"/>
    <path data-name="패스 56612" d="M82.338 17.568h-.9v-5.984h-1.926v-.79h4.747v.79h-1.921z" transform="translate(-16.309 -2.159)" style="stroke:#fff;stroke-miterlimit:10;stroke-width:.2px;fill:#fff"/>
    <path data-name="패스 56613" d="M89.544 17.568v-6.774h.9v6.774z" transform="translate(-18.356 -2.159)" style="stroke:#fff;stroke-miterlimit:10;stroke-width:.2px;fill:#fff"/>
    <path data-name="패스 56614" d="M94.771 17.568h-.9v-5.984h-1.925v-.79h4.634v.79h-1.922v5.984z" transform="translate(-18.86 -2.159)" style="stroke:#fff;stroke-miterlimit:10;stroke-width:.2px;fill:#fff"/>
    <path data-name="패스 56615" d="M107.4 16.778a3.5 3.5 0 0 1-5.99-2.484 3.5 3.5 0 1 1 7.008 0 3.5 3.5 0 0 1-1.018 2.484zm-4.294-.564a2.667 2.667 0 0 0 1.808.79 2.25 2.25 0 0 0 1.809-.79 2.722 2.722 0 0 0 .79-1.919 2.325 2.325 0 0 0-.79-1.919 2.669 2.669 0 0 0-1.809-.79 2.249 2.249 0 0 0-1.808.79 2.72 2.72 0 0 0-.792 1.919 2.642 2.642 0 0 0 .794 1.918z" transform="translate(-20.809 -2.159)" style="stroke:#fff;stroke-miterlimit:10;stroke-width:.2px;fill:#fff"/>
    <path data-name="패스 56616" d="M111.727 17.568v-6.774h1.017l3.278 5.306v-5.306h.9v6.774h-.9l-3.5-5.532v5.532z" transform="translate(-22.919 -2.159)" style="stroke:#fff;stroke-miterlimit:10;stroke-width:.2px;fill:#fff"/>
    <path data-name="패스 56617" d="M93.5 30.354a4.752 4.752 0 0 0-4.86 4.855 4.821 4.821 0 0 0 4.86 4.855 4.855 4.855 0 1 0 0-9.71zm0 7.677a2.945 2.945 0 0 1 0-5.871 2.736 2.736 0 0 1 2.711 2.94 2.736 2.736 0 0 1-2.711 2.931zm-10.514-7.677a4.753 4.753 0 0 0-4.86 4.855 4.822 4.822 0 0 0 4.86 4.855 4.855 4.855 0 1 0 0-9.71zm0 7.677a2.945 2.945 0 0 1 0-5.871A2.737 2.737 0 0 1 85.7 35.1a2.737 2.737 0 0 1-2.714 2.931zM70.44 31.822v2.032h4.86a4.267 4.267 0 0 1-1.13 2.6 5.006 5.006 0 0 1-3.73 1.468 5.259 5.259 0 0 1-5.313-5.422 5.329 5.329 0 0 1 5.313-5.42 5.608 5.608 0 0 1 3.73 1.468l1.469-1.468a7.248 7.248 0 0 0-5.087-2.032 7.621 7.621 0 0 0-7.573 7.452 7.621 7.621 0 0 0 7.573 7.451 6.509 6.509 0 0 0 5.2-2.145 6.792 6.792 0 0 0 1.809-4.742 4.228 4.228 0 0 0-.113-1.242zm51.317 1.578a4.392 4.392 0 0 0-4.07-3.048 4.549 4.549 0 0 0-4.521 4.855 4.727 4.727 0 0 0 4.747 4.855 4.638 4.638 0 0 0 3.956-2.145l-1.582-1.129a2.756 2.756 0 0 1-2.374 1.355 2.454 2.454 0 0 1-2.374-1.468l6.443-2.71zm-6.557 1.583a2.744 2.744 0 0 1 2.486-2.823 2 2 0 0 1 1.809 1.016zm-5.313 4.629h2.147V25.5h-2.147zM106.5 31.37a3.723 3.723 0 0 0-2.6-1.129 4.854 4.854 0 0 0-4.637 4.859 4.678 4.678 0 0 0 4.634 4.742 3.245 3.245 0 0 0 2.486-1.129h.114v.677a2.57 2.57 0 0 1-4.974 1.129l-1.809.79a4.664 4.664 0 0 0 4.3 2.822c2.486 0 4.522-1.468 4.522-4.968V30.58H106.5zm-2.486 6.661a2.944 2.944 0 0 1 0-5.871 2.717 2.717 0 0 1 2.6 2.935 2.717 2.717 0 0 1-2.603 2.936zM131.591 25.5H126.5v14.112h2.147v-5.306h2.939a4.409 4.409 0 1 0 0-8.806zm.113 6.887h-3.052v-4.856h3.048a2.482 2.482 0 0 1 2.487 2.371 2.671 2.671 0 0 1-2.487 2.484zm13-2.032a3.8 3.8 0 0 0-3.73 2.145l1.922.79a2 2 0 0 1 1.922-1.016 2.124 2.124 0 0 1 2.261 1.806v.113a4.487 4.487 0 0 0-2.148-.565c-2.034 0-4.069 1.129-4.069 3.161a3.31 3.31 0 0 0 3.5 3.161 3.182 3.182 0 0 0 2.713-1.355h.113v1.129h2.034v-5.418a4.2 4.2 0 0 0-4.522-3.952zm-.226 7.677c-.678 0-1.7-.339-1.7-1.242 0-1.129 1.243-1.468 2.261-1.468a4.379 4.379 0 0 1 1.922.452 2.632 2.632 0 0 1-2.484 2.257zm11.869-7.451-2.374 6.1h-.113l-2.487-6.1h-2.261l3.73 8.58-2.149 4.739h2.148l5.765-13.322zm-18.99 9.032h2.143V25.5h-2.147z" transform="translate(-13.596 -5.01)" style="fill:#fff"/>
    <g data-name="그룹 185542">
        <g data-name="그룹 185541" transform="translate(14.439 8.635)" style="clip-path:url(#r0z51rin2a)">
            <path data-name="패스 56554" d="M12.387 58.779.47 71.428a.056.056 0 0 0 0 .008 3.222 3.222 0 0 0 4.742 1.941l.038-.023 13.414-7.74z" transform="translate(-.36 -45.029)" style="fill:#dd231a"/>
            <path data-name="패스 56555" d="m62.586 38.551-.011-.007-5.791-3.358-6.525 5.806 6.548 6.546 5.761-3.324a3.221 3.221 0 0 0 .019-5.664" transform="translate(-38.502 -26.955)" style="fill:#feb300"/>
            <path data-name="패스 56556" d="M.109 10.224a3.172 3.172 0 0 0-.109.828V33.4a3.107 3.107 0 0 0 .11.827l12.327-12.321z" transform="translate(0 -7.832)" style="fill:#3568b0"/>
            <path data-name="패스 56557" d="m12.472 14.4 6.168-6.171L5.241.46A3.224 3.224 0 0 0 .467 2.389z" transform="translate(-.357)" style="fill:#2e9333"/>
        </g>
    </g>
</svg>
