<svg xmlns="http://www.w3.org/2000/svg" width="160" height="48" viewBox="0 0 160 48">
    <g data-name="그룹 186080" transform="translate(-217.5)">
        <rect data-name="사각형 21635" width="160" height="48" rx="8" transform="translate(217.5)" style="fill:#222"/>
        <path data-name="패스 56623" d="M259.4 24.192a6.476 6.476 0 0 1 3.095-5.44 6.645 6.645 0 0 0-5.241-2.826c-2.207-.229-4.341 1.316-5.465 1.316-1.142 0-2.872-1.292-4.739-1.256a6.97 6.97 0 0 0-5.869 3.574c-2.539 4.389-.647 10.837 1.789 14.387 1.215 1.739 2.636 3.677 4.5 3.61 1.82-.072 2.5-1.159 4.7-1.159 2.176 0 2.817 1.159 4.715 1.117 1.953-.03 3.185-1.745 4.358-3.5a14.416 14.416 0 0 0 1.995-4.051 6.322 6.322 0 0 1-3.838-5.772zm-3.584-10.6a6.377 6.377 0 0 0 1.462-4.576 6.492 6.492 0 0 0-4.207 2.174 6.074 6.074 0 0 0-1.5 4.407 5.4 5.4 0 0 0 4.241-2.007z" transform="translate(-4.621 -1.853)" style="fill:#fff"/>
        <path data-name="패스 56624" d="M294.356 40.711h-2.544l-1.4-4.371h-4.842l-1.33 4.371h-2.478l4.8-14.889h2.961zM290 34.5l-1.263-3.888c-.133-.4-.387-1.334-.75-2.808h-.042c-.145.634-.387 1.57-.708 2.808L286 34.5zm16.677.706a6.093 6.093 0 0 1-1.487 4.329 4.372 4.372 0 0 1-3.313 1.413 3.32 3.32 0 0 1-3.07-1.521v5.633h-2.388V33.5c0-1.147-.03-2.325-.091-3.526h2.1l.134 1.7h.041a4.248 4.248 0 0 1 6.8-.423 5.932 5.932 0 0 1 1.272 3.96zm-2.43.09a4.424 4.424 0 0 0-.707-2.584 2.44 2.44 0 0 0-2.08-1.057 2.5 2.5 0 0 0-1.6.586 2.731 2.731 0 0 0-.937 1.534 3 3 0 0 0-.109.724V36.3a2.9 2.9 0 0 0 .72 1.98 2.383 2.383 0 0 0 1.868.809 2.46 2.46 0 0 0 2.1-1.038 4.692 4.692 0 0 0 .743-2.751zm14.8-.09a6.09 6.09 0 0 1-1.487 4.329 4.369 4.369 0 0 1-3.312 1.413 3.322 3.322 0 0 1-3.071-1.521v5.633h-2.388V33.5c0-1.147-.03-2.325-.091-3.526h2.1l.133 1.7h.042a4.247 4.247 0 0 1 6.8-.423 5.957 5.957 0 0 1 1.269 3.96zm-2.436.09a4.423 4.423 0 0 0-.707-2.584 2.44 2.44 0 0 0-2.08-1.057 2.524 2.524 0 0 0-1.608.586 2.722 2.722 0 0 0-.937 1.534 3.217 3.217 0 0 0-.115.724V36.3a2.9 2.9 0 0 0 .719 1.98 2.389 2.389 0 0 0 1.875.809 2.459 2.459 0 0 0 2.1-1.038 4.6 4.6 0 0 0 .749-2.751zm16.26 1.238a3.961 3.961 0 0 1-1.323 3.091 5.876 5.876 0 0 1-4.062 1.3 7.09 7.09 0 0 1-3.863-.93l.551-1.986a6.637 6.637 0 0 0 3.452.93 3.268 3.268 0 0 0 2.1-.61 1.983 1.983 0 0 0 .755-1.624 2.093 2.093 0 0 0-.623-1.528 5.7 5.7 0 0 0-2.058-1.137q-3.918-1.458-3.918-4.263a3.746 3.746 0 0 1 1.385-3 5.476 5.476 0 0 1 3.663-1.171 7.26 7.26 0 0 1 3.385.706l-.6 1.944a5.893 5.893 0 0 0-2.865-.682 2.923 2.923 0 0 0-1.976.616 1.761 1.761 0 0 0-.6 1.346 1.812 1.812 0 0 0 .689 1.455 7.8 7.8 0 0 0 2.164 1.147 7.364 7.364 0 0 1 2.83 1.811 3.807 3.807 0 0 1 .91 2.59zm7.918-4.77h-2.639v5.21c0 1.328.466 1.986 1.4 1.986a4.369 4.369 0 0 0 1.064-.109l.067 1.811a5.416 5.416 0 0 1-1.856.266 2.87 2.87 0 0 1-2.212-.863 4.211 4.211 0 0 1-.8-2.892V31.77h-1.566v-1.787h1.566v-1.969l2.345-.706v2.675h2.635zm11.853 3.49a5.88 5.88 0 0 1-1.414 4.063 5.037 5.037 0 0 1-3.935 1.636 4.834 4.834 0 0 1-3.772-1.564 5.707 5.707 0 0 1-1.4-3.955 5.833 5.833 0 0 1 1.451-4.087 5.014 5.014 0 0 1 3.905-1.588 4.909 4.909 0 0 1 3.8 1.57 5.654 5.654 0 0 1 1.361 3.93zm-2.478.054a4.749 4.749 0 0 0-.641-2.53 2.365 2.365 0 0 0-2.146-1.28 2.4 2.4 0 0 0-2.189 1.28 4.872 4.872 0 0 0-.64 2.578 4.792 4.792 0 0 0 .64 2.536 2.451 2.451 0 0 0 4.317-.018 4.859 4.859 0 0 0 .656-2.56zm10.246-3.236a4.519 4.519 0 0 0-.756-.066 2.259 2.259 0 0 0-1.946.948 3.57 3.57 0 0 0-.6 2.119v5.633h-2.388v-7.348c0-1.129-.018-2.252-.066-3.381h2.08l.083 2.053h.067a3.67 3.67 0 0 1 1.2-1.7 2.871 2.871 0 0 1 1.729-.574 4.436 4.436 0 0 1 .6.042zm10.681 2.759a5.93 5.93 0 0 1-.091 1.087h-7.169a3.108 3.108 0 0 0 1.04 2.433 3.546 3.546 0 0 0 2.346.749 7.956 7.956 0 0 0 2.9-.507l.375 1.654a9.008 9.008 0 0 1-3.6.664 5.233 5.233 0 0 1-3.93-1.467 5.428 5.428 0 0 1-1.427-3.943 6.123 6.123 0 0 1 1.331-4.039 4.579 4.579 0 0 1 3.76-1.721 4.012 4.012 0 0 1 3.518 1.721 5.843 5.843 0 0 1 .943 3.375zm-2.278-.616a3.217 3.217 0 0 0-.466-1.835 2.089 2.089 0 0 0-1.9-1 2.288 2.288 0 0 0-1.9.972 3.543 3.543 0 0 0-.707 1.854z" transform="translate(-13.214 -5.265)" style="fill:#fff"/>
        <path data-name="패스 56625" d="M285.247 17.249a15.421 15.421 0 0 1-1.717-.085v-7.2a12.653 12.653 0 0 1 2.025-.151c2.738 0 4 1.346 4 3.538-.004 2.528-1.491 3.898-4.308 3.898zm.405-6.515a4.71 4.71 0 0 0-.943.078v5.47a5.969 5.969 0 0 0 .792.03 2.593 2.593 0 0 0 2.817-2.928 2.394 2.394 0 0 0-2.666-2.649zm7.834 6.569a2.516 2.516 0 0 1-2.545-2.717 2.569 2.569 0 0 1 2.629-2.786 2.494 2.494 0 0 1 2.545 2.7 2.586 2.586 0 0 1-2.629 2.8zm.042-4.649c-.846 0-1.39.791-1.39 1.9 0 1.087.556 1.878 1.378 1.878s1.378-.845 1.378-1.9c.006-1.074-.538-1.877-1.366-1.877zm11.388-.749-1.65 5.277h-1.076l-.683-2.288a16.7 16.7 0 0 1-.423-1.7h-.025a10.878 10.878 0 0 1-.423 1.7l-.725 2.288h-1.087l-1.554-5.277h1.209l.6 2.506c.14.6.26 1.159.357 1.7h.024c.085-.447.23-1 .435-1.684l.749-2.518h.955l.72 2.463c.176.6.314 1.183.423 1.739h.03a15.566 15.566 0 0 1 .357-1.739l.64-2.463zM311 17.183h-1.172v-3.031c0-.936-.357-1.4-1.064-1.4a1.218 1.218 0 0 0-1.173 1.292v3.14h-1.173v-3.768c0-.465-.013-.966-.042-1.509h1.033l.054.815h.03a1.9 1.9 0 0 1 1.675-.924c1.106 0 1.837.845 1.837 2.228zm3.234 0h-1.172v-7.7h1.172zm4.286.121a2.516 2.516 0 0 1-2.544-2.717 2.569 2.569 0 0 1 2.629-2.789 2.494 2.494 0 0 1 2.545 2.7 2.59 2.59 0 0 1-2.627 2.802zm.043-4.649c-.847 0-1.39.791-1.39 1.9 0 1.087.555 1.878 1.377 1.878s1.378-.845 1.378-1.9c.003-1.075-.535-1.878-1.362-1.878zm7.217 4.528-.085-.61h-.03a1.8 1.8 0 0 1-1.547.725 1.535 1.535 0 0 1-1.621-1.552c0-1.3 1.13-1.974 3.089-1.974v-.1c0-.694-.368-1.045-1.093-1.045a2.473 2.473 0 0 0-1.379.393l-.236-.773a3.413 3.413 0 0 1 1.814-.459c1.377 0 2.079.725 2.079 2.18v1.944a7.693 7.693 0 0 0 .079 1.262zm-.163-2.626c-1.306 0-1.959.314-1.959 1.063a.749.749 0 0 0 .8.827 1.123 1.123 0 0 0 1.155-1.075zm6.842 2.626-.054-.845h-.03a1.776 1.776 0 0 1-1.7.966c-1.276 0-2.219-1.117-2.219-2.693 0-1.648.979-2.814 2.315-2.814a1.571 1.571 0 0 1 1.487.719h.024V9.485h1.173v6.273c0 .507.013.99.043 1.419h-1.04zm-.169-3.1a1.28 1.28 0 0 0-1.239-1.37c-.871 0-1.4.773-1.4 1.854 0 1.063.55 1.793 1.378 1.793a1.32 1.32 0 0 0 1.263-1.4zm8.626 3.224a2.517 2.517 0 0 1-2.545-2.717A2.569 2.569 0 0 1 341 11.8a2.493 2.493 0 0 1 2.544 2.7 2.586 2.586 0 0 1-2.625 2.8zm.042-4.649c-.847 0-1.391.791-1.391 1.9 0 1.087.557 1.878 1.379 1.878s1.378-.845 1.378-1.9c.009-1.078-.535-1.881-1.363-1.881zm8.9 4.528h-1.173v-3.034c0-.936-.357-1.4-1.064-1.4a1.218 1.218 0 0 0-1.172 1.292v3.14h-1.173v-3.768c0-.465-.012-.966-.042-1.509h1.034l.055.815h.03a1.9 1.9 0 0 1 1.674-.924c1.107 0 1.838.845 1.838 2.228v3.158zm7.894-4.4h-1.293v2.56c0 .652.223.978.682.978a2.45 2.45 0 0 0 .52-.054l.03.888a2.678 2.678 0 0 1-.913.133c-.925 0-1.482-.507-1.482-1.847v-2.662h-.773V11.9h.773v-.966l1.155-.35V11.9h1.294zm6.22 4.4h-1.173v-3.01c0-.942-.356-1.419-1.064-1.419a1.146 1.146 0 0 0-1.172 1.25v3.182H359.4v-7.7h1.173v3.17h.024a1.785 1.785 0 0 1 1.59-.857c1.119 0 1.8.869 1.8 2.246zm6.365-2.355h-3.517a1.517 1.517 0 0 0 1.663 1.564 3.967 3.967 0 0 0 1.426-.248l.182.815a4.418 4.418 0 0 1-1.771.326 2.451 2.451 0 0 1-2.629-2.657 2.576 2.576 0 0 1 2.5-2.832 2.214 2.214 0 0 1 2.189 2.501 1.937 1.937 0 0 1-.036.528zm-1.076-.839c0-.815-.411-1.389-1.161-1.389a1.385 1.385 0 0 0-1.281 1.389z" transform="translate(-13.577 -1.95)" style="fill:#fff"/>
    </g>
</svg>
