<svg width="16" height="16" viewBox="0 0 16 16" fill="none" xmlns="http://www.w3.org/2000/svg">
<path d="M5.48575 10.5133L10.5141 5.48488M7.37118 3.60001L8.62813 2.34306C9.29494 1.67625 10.1993 1.30165 11.1423 1.30165C12.0853 1.30165 12.9897 1.67625 13.6565 2.34306C14.3233 3.00986 14.6979 3.91424 14.6979 4.85725C14.6979 5.80025 14.3233 6.70463 13.6565 7.37144L12.3996 8.62839M3.60032 7.37087L2.3428 8.62839C1.676 9.29519 1.30139 10.1996 1.30139 11.1426C1.30139 12.0856 1.676 12.99 2.3428 13.6568C3.00961 14.3236 3.91399 14.6982 4.85699 14.6982C5.8 14.6982 6.70438 14.3236 7.37118 13.6568L8.6287 12.3992" stroke="url(#paint0_linear_253_2695)" stroke-width="1.5" stroke-linecap="round" stroke-linejoin="round"/>
<defs>
<linearGradient id="paint0_linear_253_2695" x1="6.46897" y1="4.64693" x2="10.9784" y2="9.66322" gradientUnits="userSpaceOnUse">
<stop stop-color="#30FFA7"/>
<stop offset="1" stop-color="#00E5CA"/>
</linearGradient>
</defs>
</svg>
