<svg xmlns="http://www.w3.org/2000/svg" width="160" height="160" viewBox="0 0 160 160">
    <defs>
        <clipPath id="3lhee7a00a">
            <path data-name="사각형 23547" transform="translate(36.001 46)" style="fill:none" d="M0 0h99.537v86.32H0z"/>
        </clipPath>
        <clipPath id="g1y9hi5k8b">
            <path data-name="사각형 23548" style="fill:none" d="M0 0h160v160H0z"/>
        </clipPath>
    </defs>
    <g data-name="그룹 188730">
        <g data-name="그룹 188729">
            <g data-name="그룹 188726">
                <g data-name="그룹 188725" style="clip-path:url(#3lhee7a00a)">
                    <path data-name="패스 56363" d="M134.911 57.55c-.746 0-1.446.676-2.006 1.1a8.556 8.556 0 0 1-5.224 1.913 7.364 7.364 0 0 1-1.4-.21 19.854 19.854 0 0 0 5.62-9.078c.14-.513.234-1.376-.279-1.7a.693.693 0 0 0-.514-.139c-.443.116-.653.839-.979 1.329a10.975 10.975 0 0 1-3.728 3.659 5.426 5.426 0 0 1-2.1.583c-2.775-5.248-7.86-9-16.49-9-.444 0-.887.046-1.33.07-.563-.05-1.08-.077-1.5-.077-6.184.377-11.289 3.456-15.278 7.514a38.875 38.875 0 0 0-9.936 16.725A47.546 47.546 0 0 0 77.695 82.9c-3.452 3.779-7.581 6.135-12.525 6.135-10.38 0-11.756-6.578-11.64-10.613.327-7.161 5.528-17.984 12.106-22.136a9.035 9.035 0 0 0-.233 1.959v.4a8.024 8.024 0 1 0 16.032-.705c0-.053 0-.1-.008-.158.117-9.582-11.2-11.9-15.348-11.782-15.091.82-24.444 15-27.22 23.539-9.447 27.92 6.578 34.707 18.242 34.707 9.7 0 16.957-4.921 22.112-10.869 3.24 8.323 11.148 10.869 17.609 10.869a21.355 21.355 0 0 0 4.968-.559c12.082-.957 20.829-11.523 24-24.818a44.618 44.618 0 0 0 1.283-12.456c.21-.093.42-.163.653-.28 2.566-1.329 6.391-4.128 7.581-6.9.443-1.073.21-1.679-.4-1.679m-34.47 31.018c-.07 0-.117-.023-.163-.023a8.53 8.53 0 0 1-4.782-3.033c-3.429-6.811 1.423-22.951 8.957-28.293-.024.35-.093.677-.093 1v.093a7.542 7.542 0 0 0 7.185 7.883h.022a6.88 6.88 0 0 0 3.732-1.1c.023 9.773-5.715 23.465-14.858 23.465" style="fill:#00e09b"/>
                </g>
            </g>
            <g data-name="그룹 188728">
                <g data-name="그룹 188727" style="clip-path:url(#g1y9hi5k8b)">
                    <path data-name="패스 56364" d="M146 80a10 10 0 0 0-10-10 10 10 0 0 0 10-10 10 10 0 0 0 10 10 10 10 0 0 0-10 10" style="fill:#ffe65c"/>
                    <path data-name="패스 56365" d="M123 42a7 7 0 0 0-7-7 7 7 0 0 0 7-7 7 7 0 0 0 7 7 7 7 0 0 0-7 7" style="fill:#03fffb"/>
                    <path data-name="패스 56366" d="M19 110a7 7 0 0 0-7-7 7 7 0 0 0 7-7 7 7 0 0 0 7 7 7 7 0 0 0-7 7" style="fill:#ff72c9"/>
                    <path data-name="패스 56367" d="M42.809 116.918a14.2 14.2 0 0 0 2.7 3.91c7.541 7.441 19.734 9.709 29.946 9.6a65.3 65.3 0 0 0 22.624-4.316 63.983 63.983 0 0 0 10.529-5.185c2.82-1.729 6.869-4.075 7.323-7.718a5.142 5.142 0 0 0-3.82-5.365c-2.854-.943-5.029.781-7.194 2.4a46 46 0 0 1-7.729 4.563c-13.922 6.674-32.589 7.312-44.775-3.573-1.518-1.356-3.031-2.93-5.03-3.311-5.6-1.066-6.293 5.352-4.575 8.994" style="fill:#00e09b"/>
                </g>
            </g>
        </g>
    </g>
</svg>
