<svg width="20" height="28" viewBox="0 0 20 28" fill="none" xmlns="http://www.w3.org/2000/svg">
<path fill-rule="evenodd" clip-rule="evenodd" d="M3.481 0.628907H12.427L20.005 8.52891V23.8899C20.0054 24.3466 19.9158 24.799 19.7414 25.2211C19.567 25.6432 19.3111 26.0269 18.9884 26.3501C18.6658 26.6733 18.2826 26.9299 17.8607 27.105C17.4389 27.2802 16.9867 27.3705 16.53 27.3709H3.481C3.02379 27.3712 2.57102 27.2813 2.14857 27.1065C1.72611 26.9316 1.34227 26.6752 1.01897 26.3519C0.695682 26.0286 0.439279 25.6448 0.264435 25.2223C0.0895919 24.7999 -0.000262338 24.3471 5.75294e-07 23.8899V4.10991C-0.000262338 3.6527 0.0895919 3.19993 0.264435 2.77747C0.439279 2.35502 0.695682 1.97117 1.01897 1.64788C1.34227 1.32459 1.72611 1.06819 2.14857 0.893347C2.57102 0.718503 3.02379 0.628644 3.481 0.628907Z" fill="url(#paint0_linear_165_5838)"/>
<path opacity="0.302" fill-rule="evenodd" clip-rule="evenodd" d="M12.416 0.628906V8.46691H19.997L12.416 0.628906Z" fill="white"/>
<path d="M12.4345 16.4043H16.3955V17.3818H15.0117V21H13.8183V17.3818H12.4345V16.4043Z" fill="white"/>
<path d="M9.9747 17.7754H10.0128L10.7999 16.4043H12.1519L10.7745 18.7021L12.2027 21H10.8189L10.0128 19.6099H9.9747L9.1749 21H7.79745L9.21298 18.7021L7.84189 16.4043H9.20029L9.9747 17.7754Z" fill="white"/>
<path d="M3.60471 16.4043H7.56564V17.3818H6.18185V21H4.98849V17.3818H3.60471V16.4043Z" fill="white"/>
<defs>
<linearGradient id="paint0_linear_165_5838" x1="11.6136" y1="1.01372" x2="7.64984" y2="25.781" gradientUnits="userSpaceOnUse">
<stop stop-color="#30FFA7"/>
<stop offset="1" stop-color="#00E5CA"/>
</linearGradient>
</defs>
</svg>
