<svg xmlns="http://www.w3.org/2000/svg" width="40" height="40" viewBox="0 0 40 40">
    <path data-name="사각형 23232" style="fill:none" d="M0 0h40v40H0z"/>
    <path data-name="패스 55803" d="m10.389 1.152 4.7 4.181c.879.782 1.319 1.172 1.481 1.634a1.89 1.89 0 0 1 0 1.252c-.162.461-.6.852-1.481 1.634l-4.7 4.181c-.4.355-.6.532-.768.538a.473.473 0 0 1-.382-.172c-.108-.131-.108-.4-.108-.932v-2.635a11.235 11.235 0 0 0-6.487 2.045c-.921.681-1.382 1.022-1.557 1.008a.426.426 0 0 1-.368-.227 4.029 4.029 0 0 1 .15-1.559c1.044-6.11 5.249-7.744 8.262-7.744V1.717c0-.534 0-.8.108-.932a.472.472 0 0 1 .382-.171c.169.006.369.186.768.538z" transform="translate(11.32 12.407)" style="fill:#fff"/>
</svg>
