<svg xmlns="http://www.w3.org/2000/svg" width="16" height="15.996" viewBox="0 0 16 15.996">
    <path data-name="제외 6" d="M19839 19025a7.936 7.936 0 0 1-3.562-.832 1.373 1.373 0 0 0-.609-.148 1.182 1.182 0 0 0-.312.041l-1.775.473a1.035 1.035 0 0 1-1.1-.373 1.028 1.028 0 0 1-.176-.9l.479-1.783a1.335 1.335 0 0 0-.107-.916 8 8 0 1 1 7.162 4.438zm2.59-11.2v6.4h1.41v-6.4h-1.406zm-4.658 5.031h2.092l.406 1.371h1.518l-2.031-6.4h-1.877l-2.041 6.4h1.527l.406-1.371zm1.752-1.148h-1.408l.676-2.3h.053l.68 2.3z" transform="translate(-19830.998 -19009.002)" style="fill:#222"/>
</svg>
