<svg xmlns="http://www.w3.org/2000/svg" width="40" height="40" viewBox="0 0 40 40">
    <path data-name="사각형 23000" style="fill:none" d="M0 0h40v40H0z"/>
    <g data-name="그룹 187301">
        <path data-name="패스 55570" d="M11 21a9.993 9.993 0 1 0-8.957-5.547 1.633 1.633 0 0 1 .134 1.147l-.6 2.226a1.3 1.3 0 0 0 1.592 1.592l2.226-.6a1.634 1.634 0 0 1 1.148.134A9.958 9.958 0 0 0 11 21z" style="stroke:#fff;stroke-width:1.5px;fill:none" transform="translate(9 9)"/>
        <path data-name="패스 55571" d="M11 15V7" style="stroke-linecap:round;stroke:#fff;stroke-width:1.5px;fill:none" transform="translate(9 9)"/>
        <path data-name="패스 55572" d="M7 13V9" style="stroke-linecap:round;stroke:#fff;stroke-width:1.5px;fill:none" transform="translate(9 9)"/>
        <path data-name="패스 55573" d="M15 13V9" style="stroke-linecap:round;stroke:#fff;stroke-width:1.5px;fill:none" transform="translate(9 9)"/>
    </g>
</svg>
