<svg xmlns="http://www.w3.org/2000/svg" width="32" height="32" viewBox="0 0 32 32">
    <g data-name="그룹 187543" transform="translate(-306 -48)">
        <rect data-name="사각형 23122" width="32" height="32" rx="16" transform="translate(306 48)" style="opacity:.6"/>
        <path data-name="패스 55763" d="M9.03 2.26a.667.667 0 1 1 .6-1.189A6.57 6.57 0 0 1 13.218 7a6.587 6.587 0 0 1-3.583 5.926.667.667 0 1 1-.605-1.188A5.253 5.253 0 0 0 11.884 7 5.238 5.238 0 0 0 9.03 2.26zm-.809 2.769a.667.667 0 0 1 .888-.994 3.951 3.951 0 0 1 0 5.927.667.667 0 0 1-.888-.994 2.618 2.618 0 0 0 0-3.938zM1 9.665a1 1 0 0 1-1-1V5.332a1 1 0 0 1 1-1h1.433l3.149-2.52a.667.667 0 0 1 1.083.52v9.332a.667.667 0 0 1-1.083.521l-3.15-2.52H1z" transform="translate(315 57.002)" style="fill:#fff"/>
        <path data-name="사각형 23154" style="fill:none" d="M0 0h20v20H0z" transform="translate(312 54)"/>
    </g>
</svg>
